<svg xmlns="http://www.w3.org/2000/svg" xmlns:xlink="http://www.w3.org/1999/xlink" width="300" zoomAndPan="magnify" viewBox="0 0 224.87999 74.999997" height="100" preserveAspectRatio="xMidYMid meet" version="1.0"><defs><g/></defs><g fill="#ffffff" fill-opacity="1"><g transform="translate(84.779628, 68.683854)"><g><path d="M 1.640625 -17.203125 C 1.640625 -22.429688 3.46875 -26.742188 7.125 -30.140625 C 10.789062 -33.546875 14.976562 -35.25 19.6875 -35.25 C 24.394531 -35.25 28.554688 -33.554688 32.171875 -30.171875 C 35.796875 -26.796875 37.609375 -22.492188 37.609375 -17.265625 C 37.609375 -13.648438 36.671875 -10.4375 34.796875 -7.625 C 32.921875 -4.8125 30.640625 -2.738281 27.953125 -1.40625 C 25.273438 -0.0703125 22.5 0.59375 19.625 0.59375 C 16.75 0.59375 13.957031 -0.113281 11.25 -1.53125 C 8.539062 -2.945312 6.257812 -5.039062 4.40625 -7.8125 C 2.5625 -10.582031 1.640625 -13.710938 1.640625 -17.203125 Z M 15.296875 -12.515625 C 16.691406 -11.453125 18.109375 -10.921875 19.546875 -10.921875 C 20.992188 -10.921875 22.4375 -11.460938 23.875 -12.546875 C 25.3125 -13.640625 26.03125 -15.253906 26.03125 -17.390625 C 26.03125 -19.535156 25.351562 -21.128906 24 -22.171875 C 22.644531 -23.222656 21.179688 -23.75 19.609375 -23.75 C 18.046875 -23.75 16.585938 -23.203125 15.234375 -22.109375 C 13.890625 -21.015625 13.21875 -19.410156 13.21875 -17.296875 C 13.21875 -15.179688 13.910156 -13.585938 15.296875 -12.515625 Z M 15.296875 -12.515625 "/></g></g></g><g fill="#ffffff" fill-opacity="1"><g transform="translate(128.338026, 68.683854)"><g><path d="M 21.71875 -34.34375 C 26.070312 -34.34375 29.695312 -32.679688 32.59375 -29.359375 C 35.5 -26.046875 36.953125 -21.992188 36.953125 -17.203125 L 36.953125 -5.6875 C 36.953125 -4.6875 36.921875 -3.9375 36.859375 -3.4375 C 36.796875 -2.9375 36.585938 -2.359375 36.234375 -1.703125 C 35.671875 -0.566406 33.992188 0 31.203125 0 C 28.535156 0 26.878906 -0.566406 26.234375 -1.703125 C 25.878906 -2.359375 25.671875 -2.945312 25.609375 -3.46875 C 25.546875 -3.988281 25.515625 -4.773438 25.515625 -5.828125 L 25.515625 -17.265625 C 25.515625 -19.054688 25.007812 -20.453125 24 -21.453125 C 23 -22.453125 21.722656 -22.953125 20.171875 -22.953125 C 18.628906 -22.953125 17.269531 -22.484375 16.09375 -21.546875 C 14.914062 -20.609375 14.238281 -19.550781 14.0625 -18.375 L 14.0625 -5.6875 C 14.0625 -4.6875 14.023438 -3.9375 13.953125 -3.4375 C 13.890625 -2.9375 13.6875 -2.359375 13.34375 -1.703125 C 12.78125 -0.566406 11.101562 0 8.3125 0 C 5.5625 0 3.878906 -0.585938 3.265625 -1.765625 C 2.960938 -2.421875 2.773438 -2.988281 2.703125 -3.46875 C 2.640625 -3.945312 2.609375 -4.707031 2.609375 -5.75 L 2.609375 -44.875 C 2.609375 -45.875 2.640625 -46.625 2.703125 -47.125 C 2.773438 -47.625 2.960938 -48.179688 3.265625 -48.796875 C 3.878906 -49.972656 5.582031 -50.5625 8.375 -50.5625 C 11.125 -50.5625 12.78125 -49.972656 13.34375 -48.796875 C 13.6875 -48.140625 13.890625 -47.5625 13.953125 -47.0625 C 14.023438 -46.5625 14.0625 -45.804688 14.0625 -44.796875 L 14.0625 -30.34375 C 16.238281 -33.007812 18.789062 -34.34375 21.71875 -34.34375 Z M 21.71875 -34.34375 "/></g></g></g><g fill="#ffffff" fill-opacity="1"><g transform="translate(172.223436, 68.683854)"><g><path d="M 2.609375 -28.71875 C 2.609375 -29.71875 2.640625 -30.46875 2.703125 -30.96875 C 2.773438 -31.46875 2.960938 -32.046875 3.265625 -32.703125 C 3.878906 -33.835938 5.582031 -34.40625 8.375 -34.40625 C 10.46875 -34.40625 11.945312 -34.035156 12.8125 -33.296875 C 13.5625 -32.679688 13.957031 -31.742188 14 -30.484375 C 14.039062 -30.046875 14.0625 -29.410156 14.0625 -28.578125 L 14.0625 -5.6875 C 14.0625 -4.6875 14.023438 -3.9375 13.953125 -3.4375 C 13.890625 -2.9375 13.6875 -2.359375 13.34375 -1.703125 C 12.78125 -0.566406 11.101562 0 8.3125 0 C 5.5625 0 3.878906 -0.585938 3.265625 -1.765625 C 2.960938 -2.421875 2.773438 -2.988281 2.703125 -3.46875 C 2.640625 -3.945312 2.609375 -4.707031 2.609375 -5.75 Z M 13.375 -40.84375 C 13.050781 -40.207031 12.472656 -39.757812 11.640625 -39.5 C 10.816406 -39.238281 9.71875 -39.109375 8.34375 -39.109375 C 6.96875 -39.109375 5.863281 -39.238281 5.03125 -39.5 C 4.207031 -39.757812 3.628906 -40.21875 3.296875 -40.875 C 2.972656 -41.53125 2.773438 -42.109375 2.703125 -42.609375 C 2.640625 -43.109375 2.609375 -43.859375 2.609375 -44.859375 C 2.609375 -45.867188 2.640625 -46.625 2.703125 -47.125 C 2.773438 -47.625 2.960938 -48.179688 3.265625 -48.796875 C 3.878906 -49.972656 5.582031 -50.5625 8.375 -50.5625 C 11.125 -50.5625 12.78125 -49.972656 13.34375 -48.796875 C 13.6875 -48.140625 13.890625 -47.5625 13.953125 -47.0625 C 14.023438 -46.5625 14.0625 -45.804688 14.0625 -44.796875 C 14.0625 -43.796875 14.023438 -43.046875 13.953125 -42.546875 C 13.890625 -42.046875 13.695312 -41.476562 13.375 -40.84375 Z M 13.375 -40.84375 "/></g></g></g><g fill="#ffffff" fill-opacity="1"><g transform="translate(193.217947, 68.683854)"><g><path d="M 22.625 -22.890625 L 18.375 -23.15625 L 18.375 -14.125 C 18.375 -12.945312 18.554688 -12.097656 18.921875 -11.578125 C 19.296875 -11.054688 19.992188 -10.796875 21.015625 -10.796875 C 22.046875 -10.796875 22.832031 -10.757812 23.375 -10.6875 C 23.925781 -10.625 24.503906 -10.421875 25.109375 -10.078125 C 26.117188 -9.503906 26.625 -8.039062 26.625 -5.6875 C 26.625 -2.9375 26.007812 -1.257812 24.78125 -0.65625 C 24.132812 -0.351562 23.554688 -0.164062 23.046875 -0.09375 C 22.546875 -0.03125 21.816406 0 20.859375 0 C 16.328125 0 12.882812 -1.019531 10.53125 -3.0625 C 8.175781 -5.113281 7 -8.582031 7 -13.46875 L 7 -23.15625 C 6.164062 -23.019531 5.269531 -22.953125 4.3125 -22.953125 C 3.351562 -22.953125 2.554688 -23.320312 1.921875 -24.0625 C 1.296875 -24.8125 0.984375 -26.078125 0.984375 -27.859375 C 0.984375 -29.648438 1.09375 -30.945312 1.3125 -31.75 C 1.53125 -32.5625 1.832031 -33.140625 2.21875 -33.484375 C 2.914062 -34.054688 3.789062 -34.34375 4.84375 -34.34375 L 7 -34.078125 L 7 -40.8125 C 7 -41.8125 7.03125 -42.550781 7.09375 -43.03125 C 7.15625 -43.507812 7.363281 -44.035156 7.71875 -44.609375 C 8.28125 -45.703125 9.957031 -46.25 12.75 -46.25 C 15.71875 -46.25 17.484375 -45.441406 18.046875 -43.828125 C 18.265625 -43.128906 18.375 -42.015625 18.375 -40.484375 L 18.375 -34.078125 C 20.289062 -34.253906 21.738281 -34.34375 22.71875 -34.34375 C 23.707031 -34.34375 24.453125 -34.304688 24.953125 -34.234375 C 25.453125 -34.171875 26.03125 -33.96875 26.6875 -33.625 C 27.820312 -33.050781 28.390625 -31.367188 28.390625 -28.578125 C 28.390625 -25.835938 27.800781 -24.160156 26.625 -23.546875 C 25.96875 -23.242188 25.390625 -23.054688 24.890625 -22.984375 C 24.390625 -22.921875 23.632812 -22.890625 22.625 -22.890625 Z M 22.625 -22.890625 "/></g></g></g><g fill="#f74a14" fill-opacity="1"><g transform="translate(1.419357, 72.201197)"><g><path d="M 79.609375 -68.53125 C 80.128906 -67.550781 80.4375 -66.671875 80.53125 -65.890625 C 80.625 -65.117188 80.671875 -63.988281 80.671875 -62.5 L 80.671875 -8.546875 C 80.671875 -4.078125 79.441406 -1.457031 76.984375 -0.6875 C 75.753906 -0.289062 74.195312 -0.09375 72.3125 -0.09375 C 70.4375 -0.09375 68.945312 -0.253906 67.84375 -0.578125 C 66.738281 -0.898438 65.894531 -1.289062 65.3125 -1.75 C 64.738281 -2.207031 64.285156 -2.851562 63.953125 -3.6875 C 63.628906 -4.789062 63.46875 -6.476562 63.46875 -8.75 L 63.46875 -41.3125 C 61.851562 -39.300781 59.488281 -36.109375 56.375 -31.734375 C 53.269531 -27.359375 51.296875 -24.617188 50.453125 -23.515625 C 49.609375 -22.421875 49.023438 -21.660156 48.703125 -21.234375 C 48.378906 -20.816406 47.582031 -20.234375 46.3125 -19.484375 C 45.050781 -18.742188 43.691406 -18.375 42.234375 -18.375 C 40.773438 -18.375 39.445312 -18.710938 38.25 -19.390625 C 37.050781 -20.066406 36.191406 -20.734375 35.671875 -21.390625 L 34.890625 -22.453125 C 33.597656 -24.078125 31.039062 -27.53125 27.21875 -32.8125 C 23.394531 -38.09375 21.320312 -40.925781 21 -41.3125 L 21 -8.546875 C 21 -7.054688 20.945312 -5.9375 20.84375 -5.1875 C 20.75 -4.445312 20.441406 -3.625 19.921875 -2.71875 C 18.953125 -0.96875 16.425781 -0.09375 12.34375 -0.09375 C 8.394531 -0.09375 5.929688 -0.96875 4.953125 -2.71875 C 4.441406 -3.625 4.132812 -4.46875 4.03125 -5.25 C 3.9375 -6.03125 3.890625 -7.195312 3.890625 -8.75 L 3.890625 -62.703125 C 3.890625 -64.191406 3.9375 -65.304688 4.03125 -66.046875 C 4.132812 -66.796875 4.441406 -67.65625 4.953125 -68.625 C 5.929688 -70.3125 8.460938 -71.15625 12.546875 -71.15625 C 14.285156 -71.15625 15.785156 -70.941406 17.046875 -70.515625 C 18.316406 -70.097656 19.144531 -69.660156 19.53125 -69.203125 L 20.125 -68.625 L 42.1875 -39.65625 C 53.195312 -54.238281 60.550781 -63.863281 64.25 -68.53125 C 65.351562 -70.28125 67.960938 -71.15625 72.078125 -71.15625 C 76.191406 -71.15625 78.703125 -70.28125 79.609375 -68.53125 Z M 79.609375 -68.53125 "/></g></g></g></svg>